<svg width="55" height="26" viewBox="0 0 55 26" fill="none" xmlns="http://www.w3.org/2000/svg">
<path d="M54.4969 0V25.0762H50.3708V7.90254L42.6964 25.0762H39.8363L32.1261 7.90254V25.0762H28V0H32.4542L41.2841 19.6657L50.082 0H54.4969Z" fill="#0074B7"/>
<path d="M12.6101 25.6201C9.17231 25.6201 6.21057 24.4177 3.7267 22.0119C1.24194 19.607 0 16.5463 0 12.8296C0 9.11386 1.24194 6.04687 3.7267 3.62955C6.21057 1.21044 9.25166 0 12.8491 0C15.5255 0 17.9078 0.656767 19.9958 1.96941C22.0829 3.28028 23.5977 5.1386 24.5391 7.54348H19.5821C18.2287 5.01773 15.9847 3.75397 12.8491 3.75397C10.3144 3.75397 8.2451 4.58492 6.6403 6.24595C5.0355 7.90519 4.2331 10.0995 4.2331 12.8296C4.2331 15.5598 5.0355 17.7549 6.6403 19.4133C8.2451 21.0725 10.2422 21.9017 12.6315 21.9017C15.0209 21.9017 16.9199 21.2716 18.3304 20.0105C19.7426 18.7476 20.5931 17.0333 20.8838 14.8666H11.4369V11.6565H25.2987V14.8666C24.9136 17.874 23.562 20.4184 21.244 22.4989C18.9277 24.5803 16.0498 25.6201 12.6101 25.6201Z" fill="#545454"/>
</svg>
