<svg width="215" height="43" viewBox="0 0 215 43" fill="none" xmlns="http://www.w3.org/2000/svg">
<path d="M12.7244 25.7827C9.28658 25.7827 6.32484 24.5803 3.84097 22.1745C1.35621 19.7696 0.114273 16.7089 0.114273 12.9922C0.114273 9.27646 1.35621 6.20947 3.84097 3.79214C6.32484 1.37304 9.36593 0.162598 12.9634 0.162598C15.6398 0.162598 18.022 0.819364 20.1101 2.13201C22.1972 3.44288 23.7119 5.3012 24.6534 7.70608H19.6964C18.343 5.18033 16.099 3.91657 12.9634 3.91657C10.4287 3.91657 8.35937 4.74752 6.75457 6.40855C5.14977 8.06779 4.34737 10.2621 4.34737 12.9922C4.34737 15.7224 5.14977 17.9175 6.75457 19.5759C8.35937 21.2351 10.3565 22.0643 12.7458 22.0643C15.1352 22.0643 17.0342 21.4342 18.4446 20.1731C19.8569 18.9102 20.7074 17.1959 20.998 15.0292H11.5511V11.8191H25.413V15.0292C25.0279 18.0366 23.6763 20.581 21.3582 22.6615C19.042 24.7429 16.164 25.7827 12.7244 25.7827Z" fill="#545454"/>
<path d="M34.8939 0.489624H39.02V22.4269H47.529V25.5659H34.8939V0.489624Z" fill="#545454"/>
<path d="M56.393 25.5659V0.489624H60.5191V25.5659H56.393Z" fill="#545454"/>
<path d="M82.8536 25.7827C79.2562 25.7827 76.2151 24.5803 73.7312 22.1745C71.2465 19.7696 70.0045 16.7089 70.0045 12.9922C70.0045 9.27646 71.2465 6.20947 73.7312 3.79214C76.2151 1.37304 79.2562 0.162598 82.8536 0.162598C85.53 0.162598 87.9123 0.819364 90.0003 2.13201C92.0874 3.44288 93.6022 5.3012 94.5437 7.70608H89.5866C88.2332 5.18033 85.9892 3.91657 82.8536 3.91657C80.3189 3.91657 78.2496 4.74752 76.6448 6.40855C75.04 8.06779 74.2376 10.2621 74.2376 12.9922C74.2376 15.7224 75.04 17.9175 76.6448 19.5759C78.2496 21.2351 80.3189 22.0643 82.8536 22.0643C85.9892 22.0643 88.2332 20.8023 89.5866 18.2783H94.5437C93.6022 20.6841 92.0874 22.5362 90.0003 23.8346C87.9123 25.1339 85.53 25.7827 82.8536 25.7827Z" fill="#545454"/>
<path d="M118.685 0.454102V3.66417H108.91V11.2788H117.598V14.4533H108.91V22.3558H118.685V25.5659H104.784V0.454102H118.685Z" fill="#545454"/>
<path d="M155.675 0.489624V25.5659H151.548V8.39216L143.874 25.5659H141.014L133.304 8.39216V25.5659H129.178V0.489624H133.632L142.462 20.1553L151.26 0.489624H155.675Z" fill="#0074B7"/>
<path d="M183.508 25.5659L181.696 20.4433H171.162L169.354 25.5659H165.046L174.057 0.454102H178.836L187.852 25.5659H183.508ZM172.285 17.2297H180.573L176.447 5.43096L172.285 17.2297Z" fill="#0074B7"/>
<path d="M205.872 0.489624C208.72 0.489624 210.916 1.19349 212.459 2.60123C214.004 4.0072 214.777 5.76331 214.777 7.86959C214.777 9.97409 214.047 11.7542 212.588 13.209C211.127 14.6648 208.889 15.3918 205.872 15.3918H201.311V25.5659H197.185V0.489624H205.872ZM201.311 12.1781H205.872C207.442 12.1781 208.612 11.8066 209.385 11.0619C210.157 10.3154 210.544 9.27555 210.544 7.94069C210.544 6.60405 210.157 5.56424 209.385 4.81949C208.612 4.07296 207.442 3.6997 205.872 3.6997H201.311V12.1781Z" fill="#0074B7"/>
<path d="M55.4914 40.9365C54.7639 40.9365 54.1487 40.6939 53.6477 40.2077C53.1457 39.7225 52.8952 39.1048 52.8952 38.3556C52.8952 37.6046 53.1457 36.9852 53.6477 36.4964C54.1487 36.0085 54.7639 35.7641 55.4914 35.7641C56.0308 35.7641 56.5113 35.8974 56.9322 36.1622C57.3548 36.4253 57.6614 36.8004 57.8522 37.2856H56.8501C56.5764 36.7764 56.1235 36.5213 55.4914 36.5213C54.9779 36.5213 54.5588 36.6902 54.2361 37.0261C53.9125 37.3602 53.7511 37.8037 53.7511 38.3556C53.7511 38.9057 53.9125 39.3492 54.2361 39.6852C54.5588 40.0193 54.9779 40.1864 55.4914 40.1864C56.1235 40.1864 56.5764 39.9322 56.8501 39.4221H57.8522C57.6614 39.9082 57.3548 40.2824 56.9322 40.5454C56.5113 40.8067 56.0308 40.9365 55.4914 40.9365Z" fill="#545454"/>
<path d="M61.4371 39.8984C61.6814 39.6549 61.8045 39.3172 61.8045 38.8853C61.8045 38.4516 61.685 38.1157 61.4478 37.8757C61.2125 37.634 60.9254 37.5131 60.5884 37.5131C60.2531 37.5131 59.9714 37.634 59.7432 37.8757C59.5149 38.1157 59.4008 38.4534 59.4008 38.8889C59.4008 39.3225 59.5123 39.6603 59.736 39.902C59.9589 40.1419 60.2371 40.261 60.5705 40.261C60.9058 40.261 61.1946 40.1402 61.4371 39.8984ZM60.5741 40.9578C59.9866 40.9578 59.5025 40.7685 59.1227 40.389C58.742 40.0077 58.5521 39.5074 58.5521 38.8889C58.5521 38.2685 58.7482 37.7673 59.1405 37.3851C59.5328 37.0039 60.0213 36.8128 60.6062 36.8128C61.1911 36.8128 61.6796 37.0039 62.0719 37.3851C62.4642 37.7673 62.6603 38.2667 62.6603 38.8853C62.6603 39.5021 62.4589 40.0015 62.0577 40.3855C61.6556 40.7676 61.1607 40.9578 60.5741 40.9578Z" fill="#545454"/>
<path d="M64.3169 36.8768V37.5131C64.5852 37.0465 65.014 36.8128 65.6042 36.8128C66.058 36.8128 66.4325 36.9639 66.7276 37.2643C67.0218 37.5656 67.1698 37.9859 67.1698 38.5263V40.8938H66.3425V38.6507C66.3425 38.2907 66.2515 38.0144 66.0714 37.8224C65.8931 37.6304 65.647 37.5344 65.3332 37.5344C65.0212 37.5344 64.7742 37.6304 64.5915 37.8224C64.4078 38.0144 64.3169 38.2907 64.3169 38.6507V40.8938H63.4859V36.8768H64.3169Z" fill="#545454"/>
<path d="M70.18 37.5558H69.1993V39.7776C69.1993 39.9296 69.235 40.0389 69.3063 40.1046C69.3776 40.1686 69.4989 40.2006 69.6701 40.2006H70.18V40.8938H69.5238C68.7482 40.8938 68.3612 40.5223 68.3612 39.7776V37.5558H67.8834V36.8768H68.3612V35.8814H69.1993V36.8768H70.18V37.5558Z" fill="#545454"/>
<path d="M71.7792 36.8768V37.5771C72.0378 37.0679 72.4407 36.8128 72.9882 36.8128V37.6731H72.7742C72.4479 37.6731 72.2009 37.7566 72.0324 37.9219C71.863 38.0855 71.7792 38.3716 71.7792 38.7787V40.8938H70.9483V36.8768H71.7792Z" fill="#545454"/>
<path d="M76.3688 39.8984C76.6131 39.6549 76.7362 39.3172 76.7362 38.8853C76.7362 38.4516 76.6167 38.1157 76.3795 37.8757C76.1442 37.634 75.8571 37.5131 75.5201 37.5131C75.1848 37.5131 74.9031 37.634 74.6749 37.8757C74.4466 38.1157 74.3325 38.4534 74.3325 38.8889C74.3325 39.3225 74.444 39.6603 74.6677 39.902C74.8906 40.1419 75.1688 40.261 75.5022 40.261C75.8375 40.261 76.1263 40.1402 76.3688 39.8984ZM75.5058 40.9578C74.9183 40.9578 74.4342 40.7685 74.0543 40.389C73.6737 40.0077 73.4837 39.5074 73.4837 38.8889C73.4837 38.2685 73.6799 37.7673 74.0722 37.3851C74.4645 37.0039 74.953 36.8128 75.5379 36.8128C76.1228 36.8128 76.6113 37.0039 77.0036 37.3851C77.3959 37.7673 77.592 38.2667 77.592 38.8853C77.592 39.5021 77.3906 40.0015 76.9894 40.3855C76.5873 40.7676 76.0924 40.9578 75.5058 40.9578Z" fill="#545454"/>
<path d="M78.4177 40.8938V35.501H79.2486V40.8938H78.4177Z" fill="#545454"/>
<path d="M82.0411 40.9578C81.4563 40.9578 80.9802 40.7694 80.6146 40.3926C80.2509 40.014 80.069 39.511 80.069 38.8853C80.069 38.2579 80.2527 37.7548 80.6218 37.378C80.9927 37.0012 81.4714 36.8128 82.059 36.8128C82.6483 36.8128 83.1253 36.9941 83.489 37.3567C83.8545 37.7175 84.0382 38.1885 84.0382 38.7715C84.0382 38.9137 84.0284 39.0453 84.0097 39.1661H80.9249C80.9436 39.503 81.0568 39.7696 81.2637 39.966C81.4705 40.1633 81.7291 40.261 82.0411 40.261C82.4949 40.261 82.815 40.0744 83.0004 39.6994H83.8991C83.7779 40.0691 83.555 40.3712 83.2322 40.6059C82.9113 40.8405 82.5136 40.9578 82.0411 40.9578ZM83.168 38.5974C83.1627 38.2685 83.0539 38.0055 82.84 37.8082C82.626 37.6118 82.3639 37.5131 82.0554 37.5131C81.7487 37.5131 81.4919 37.6118 81.2851 37.8082C81.0782 38.0055 80.9606 38.2685 80.932 38.5974H83.168Z" fill="#545454"/>
<path d="M88.6719 40.9578C88.1343 40.9578 87.6822 40.7623 87.3167 40.3712C86.953 39.9802 86.7711 39.4807 86.7711 38.8711C86.7711 38.2623 86.9512 37.7673 87.3131 37.3851C87.6769 37.0039 88.1298 36.8128 88.6719 36.8128C88.9875 36.8128 89.2656 36.8857 89.5064 37.0297C89.7489 37.1718 89.9352 37.3594 90.0663 37.5913V36.8768H90.9079V40.9578C90.9079 41.5212 90.7331 41.9825 90.3837 42.3406C90.036 42.6979 89.5723 42.8774 88.9928 42.8774C88.4124 42.8774 87.9417 42.7495 87.5806 42.4935C87.2213 42.2376 87.0171 41.891 86.9672 41.4555H87.7946C87.8588 41.6634 87.9943 41.8323 88.2011 41.9603C88.408 42.09 88.6665 42.1558 88.9786 42.1558C89.2897 42.1558 89.5492 42.0527 89.756 41.8465C89.9628 41.6421 90.0663 41.3462 90.0663 40.9578V40.1437C89.9307 40.3908 89.7426 40.5881 89.5028 40.7374C89.2648 40.8849 88.9875 40.9578 88.6719 40.9578ZM89.7025 39.87C89.945 39.6238 90.0663 39.2941 90.0663 38.8817C90.0663 38.4694 89.945 38.1423 89.7025 37.9006C89.4618 37.6571 89.1765 37.5344 88.8466 37.5344C88.5159 37.5344 88.2297 37.6544 87.9872 37.8935C87.7464 38.1308 87.627 38.4552 87.627 38.8675C87.627 39.2799 87.7464 39.6123 87.9872 39.8629C88.2297 40.1117 88.5159 40.2362 88.8466 40.2362C89.1765 40.2362 89.4618 40.1144 89.7025 39.87Z" fill="#545454"/>
<path d="M92.0047 40.8938V35.501H92.8356V40.8938H92.0047Z" fill="#545454"/>
<path d="M94.8827 35.8174C94.8827 35.9667 94.831 36.0929 94.7293 36.1942C94.6268 36.2965 94.5011 36.3471 94.3513 36.3471C94.2033 36.3471 94.0785 36.2965 93.9769 36.1942C93.8743 36.0929 93.8235 35.9667 93.8235 35.8174C93.8235 35.6663 93.8743 35.5393 93.9769 35.4371C94.0785 35.3331 94.2033 35.2806 94.3513 35.2806C94.5011 35.2806 94.6268 35.3331 94.7293 35.4371C94.831 35.5393 94.8827 35.6663 94.8827 35.8174ZM93.9341 40.8938V36.8768H94.765V40.8938H93.9341Z" fill="#545454"/>
<path d="M97.5575 40.9578C96.9727 40.9578 96.4966 40.7694 96.1311 40.3926C95.7673 40.014 95.5854 39.5127 95.5854 38.8889C95.5854 38.2632 95.7682 37.7611 96.1346 37.3816C96.5028 37.003 96.9771 36.8128 97.5575 36.8128C98.0443 36.8128 98.4473 36.9292 98.7665 37.1612C99.0875 37.3914 99.3032 37.7193 99.4156 38.1459H98.5169C98.3644 37.7246 98.0443 37.5131 97.5575 37.5131C97.217 37.5131 96.9459 37.634 96.7444 37.8757C96.5421 38.1157 96.4413 38.4516 96.4413 38.8853C96.4413 39.3172 96.5421 39.6549 96.7444 39.8984C96.9459 40.1402 97.217 40.261 97.5575 40.261C98.0399 40.261 98.3599 40.0495 98.5169 39.6247H99.4156C99.2988 40.0326 99.0785 40.357 98.7558 40.5987C98.4348 40.8387 98.0354 40.9578 97.5575 40.9578Z" fill="#545454"/>
<path d="M101.943 40.9578C101.358 40.9578 100.882 40.7694 100.516 40.3926C100.152 40.014 99.9706 39.5109 99.9706 38.8853C99.9706 38.2578 100.154 37.7548 100.523 37.378C100.894 37.0012 101.373 36.8128 101.961 36.8128C102.55 36.8128 103.027 36.9941 103.391 37.3567C103.756 37.7175 103.94 38.1885 103.94 38.7715C103.94 38.9137 103.93 39.0453 103.911 39.1661H100.827C100.845 39.5029 100.958 39.7696 101.165 39.966C101.372 40.1633 101.631 40.261 101.943 40.261C102.397 40.261 102.717 40.0744 102.902 39.6994H103.801C103.679 40.0691 103.457 40.3712 103.134 40.6059C102.813 40.8405 102.415 40.9578 101.943 40.9578ZM103.07 38.5973C103.064 38.2685 102.956 38.0055 102.742 37.8082C102.528 37.6117 102.265 37.5131 101.957 37.5131C101.65 37.5131 101.394 37.6117 101.187 37.8082C100.98 38.0055 100.862 38.2685 100.834 38.5973H103.07ZM102.998 36.5497L101.95 35.9241L100.905 36.5497V35.9027L101.95 35.2984L102.998 35.9027V36.5497Z" fill="#545454"/>
<path d="M105.589 36.8768V37.5131C105.858 37.0465 106.286 36.8128 106.877 36.8128C107.188 36.8128 107.465 36.8866 107.708 37.0332C107.952 37.1781 108.139 37.3887 108.267 37.666C108.407 37.3985 108.603 37.1896 108.852 37.0403C109.104 36.8892 109.389 36.8128 109.708 36.8128C110.169 36.8128 110.548 36.9621 110.846 37.2607C111.143 37.5593 111.292 37.9815 111.292 38.5263V40.8938H110.461V38.6507C110.461 38.2907 110.37 38.0144 110.19 37.8224C110.009 37.6304 109.763 37.5344 109.451 37.5344C109.139 37.5344 108.893 37.6304 108.713 37.8224C108.532 38.0144 108.442 38.2907 108.442 38.6507V40.8938H107.615V38.6507C107.615 38.2907 107.524 38.0144 107.344 37.8224C107.165 37.6304 106.919 37.5344 106.606 37.5344C106.294 37.5344 106.047 37.6304 105.864 37.8224C105.68 38.0144 105.589 38.2907 105.589 38.6507V40.8938H104.758V36.8768H105.589Z" fill="#545454"/>
<path d="M113.301 35.8174C113.301 35.9667 113.249 36.0929 113.147 36.1942C113.045 36.2965 112.919 36.3471 112.769 36.3471C112.621 36.3471 112.496 36.2965 112.395 36.1942C112.292 36.0929 112.241 35.9667 112.241 35.8174C112.241 35.6663 112.292 35.5393 112.395 35.4371C112.496 35.3331 112.621 35.2806 112.769 35.2806C112.919 35.2806 113.045 35.3331 113.147 35.4371C113.249 35.5393 113.301 35.6663 113.301 35.8174ZM112.352 40.8938V36.8768H113.183V40.8938H112.352Z" fill="#545454"/>
<path d="M115.975 40.9578C115.391 40.9578 114.915 40.7694 114.549 40.3926C114.185 40.014 114.003 39.5127 114.003 38.8889C114.003 38.2632 114.186 37.7611 114.553 37.3816C114.921 37.003 115.395 36.8128 115.975 36.8128C116.462 36.8128 116.865 36.9292 117.184 37.1612C117.505 37.3914 117.721 37.7193 117.834 38.1459H116.935C116.782 37.7246 116.462 37.5131 115.975 37.5131C115.635 37.5131 115.364 37.634 115.162 37.8757C114.96 38.1157 114.859 38.4516 114.859 38.8853C114.859 39.3172 114.96 39.6549 115.162 39.8984C115.364 40.1402 115.635 40.261 115.975 40.261C116.458 40.261 116.778 40.0495 116.935 39.6247H117.834C117.717 40.0326 117.496 40.357 117.174 40.5987C116.853 40.8387 116.453 40.9578 115.975 40.9578Z" fill="#545454"/>
<path d="M121.281 39.8984C121.525 39.6549 121.648 39.3172 121.648 38.8853C121.648 38.4516 121.529 38.1157 121.292 37.8757C121.056 37.634 120.769 37.5131 120.432 37.5131C120.097 37.5131 119.815 37.634 119.587 37.8757C119.359 38.1157 119.245 38.4534 119.245 38.8889C119.245 39.3225 119.356 39.6603 119.58 39.902C119.803 40.1419 120.081 40.261 120.414 40.261C120.749 40.261 121.038 40.1402 121.281 39.8984ZM120.418 40.9578C119.83 40.9578 119.346 40.7685 118.966 40.389C118.586 40.0077 118.396 39.5074 118.396 38.8889C118.396 38.2685 118.592 37.7673 118.984 37.3851C119.376 37.0039 119.865 36.8128 120.45 36.8128C121.035 36.8128 121.523 37.0039 121.916 37.3851C122.308 37.7673 122.504 38.2667 122.504 38.8853C122.504 39.5021 122.303 40.0015 121.901 40.3855C121.499 40.7676 121.004 40.9578 120.418 40.9578Z" fill="#545454"/>
<path d="M126.353 36.8768V37.5131C126.622 37.0465 127.05 36.8128 127.641 36.8128C128.094 36.8128 128.469 36.9639 128.764 37.2643C129.058 37.5656 129.206 37.9859 129.206 38.5263V40.8938H128.379V38.6507C128.379 38.2907 128.288 38.0144 128.108 37.8224C127.929 37.6304 127.683 37.5344 127.37 37.5344C127.058 37.5344 126.811 37.6304 126.628 37.8224C126.444 38.0144 126.353 38.2907 126.353 38.6507V40.8938H125.522V36.8768H126.353Z" fill="#545454"/>
<path d="M132.919 39.87C133.162 39.6238 133.283 39.2941 133.283 38.8817C133.283 38.4694 133.162 38.1423 132.919 37.9006C132.678 37.6571 132.393 37.5344 132.063 37.5344C131.732 37.5344 131.446 37.6544 131.204 37.8935C130.963 38.1308 130.844 38.4552 130.844 38.8675C130.844 39.2799 130.963 39.6123 131.204 39.8629C131.446 40.1117 131.732 40.2361 132.063 40.2361C132.393 40.2361 132.678 40.1144 132.919 39.87ZM131.888 40.9578C131.351 40.9578 130.899 40.7623 130.533 40.3712C130.169 39.9802 129.988 39.4807 129.988 38.8711C129.988 38.2623 130.168 37.7673 130.53 37.3851C130.893 37.0039 131.346 36.8128 131.888 36.8128C132.204 36.8128 132.482 36.8857 132.723 37.0297C132.965 37.1718 133.152 37.3594 133.283 37.5913V36.8768H134.124V40.8938H133.283V40.1437C133.147 40.3908 132.959 40.5881 132.719 40.7374C132.481 40.8849 132.204 40.9578 131.888 40.9578Z" fill="#545454"/>
<path d="M139.108 40.9578C138.523 40.9578 138.047 40.7694 137.681 40.3926C137.317 40.014 137.135 39.511 137.135 38.8853C137.135 38.2579 137.319 37.7548 137.688 37.378C138.059 37.0012 138.538 36.8128 139.125 36.8128C139.715 36.8128 140.192 36.9941 140.556 37.3567C140.921 37.7175 141.105 38.1885 141.105 38.7715C141.105 38.9137 141.095 39.0453 141.076 39.1661H137.991C138.01 39.503 138.123 39.7696 138.33 39.966C138.537 40.1633 138.796 40.261 139.108 40.261C139.561 40.261 139.882 40.0744 140.067 39.6994H140.966C140.844 40.0691 140.621 40.3712 140.299 40.6059C139.978 40.8405 139.58 40.9578 139.108 40.9578ZM140.235 38.5974C140.229 38.2685 140.12 38.0055 139.906 37.8082C139.692 37.6118 139.43 37.5131 139.122 37.5131C138.815 37.5131 138.558 37.6118 138.352 37.8082C138.145 38.0055 138.027 38.2685 137.999 38.5974H140.235Z" fill="#545454"/>
<path d="M142.754 36.8768V37.5771C143.013 37.0679 143.415 36.8128 143.963 36.8128V37.6731H143.749C143.423 37.6731 143.176 37.7566 143.007 37.9219C142.838 38.0855 142.754 38.3716 142.754 38.7787V40.8938H141.923V36.8768H142.754Z" fill="#545454"/>
<path d="M147.383 39.87C147.625 39.6238 147.747 39.2941 147.747 38.8817C147.747 38.4694 147.625 38.1423 147.383 37.9006C147.142 37.6571 146.857 37.5344 146.527 37.5344C146.196 37.5344 145.91 37.6544 145.668 37.8935C145.427 38.1308 145.307 38.4552 145.307 38.8675C145.307 39.2799 145.427 39.6123 145.668 39.8629C145.91 40.1117 146.196 40.2361 146.527 40.2361C146.857 40.2361 147.142 40.1144 147.383 39.87ZM146.352 40.9578C145.815 40.9578 145.363 40.7623 144.997 40.3712C144.633 39.9802 144.451 39.4807 144.451 38.8711C144.451 38.2623 144.632 37.7673 144.994 37.3851C145.357 37.0039 145.81 36.8128 146.352 36.8128C146.668 36.8128 146.946 36.8857 147.187 37.0297C147.429 37.1718 147.616 37.3594 147.747 37.5913V36.8768H148.588V40.8938H147.747V40.1437C147.611 40.3908 147.423 40.5881 147.183 40.7374C146.945 40.8849 146.668 40.9578 146.352 40.9578Z" fill="#545454"/>
<path d="M154.531 39.87C154.773 39.6238 154.895 39.2941 154.895 38.8817C154.895 38.4694 154.773 38.1423 154.531 37.9006C154.29 37.6571 154.005 37.5344 153.675 37.5344C153.344 37.5344 153.058 37.6544 152.815 37.8935C152.575 38.1308 152.455 38.4551 152.455 38.8675C152.455 39.2799 152.575 39.6123 152.815 39.8629C153.058 40.1117 153.344 40.2361 153.675 40.2361C154.005 40.2361 154.29 40.1144 154.531 39.87ZM153.5 40.9578C152.963 40.9578 152.511 40.7623 152.145 40.3712C151.781 39.9802 151.599 39.4807 151.599 38.8711C151.599 38.2623 151.779 37.7673 152.141 37.3851C152.505 37.0039 152.958 36.8128 153.5 36.8128C153.816 36.8128 154.094 36.8857 154.335 37.0296C154.577 37.1718 154.764 37.3594 154.895 37.5913V35.501H155.736V40.8938H154.895V40.1437C154.759 40.3908 154.571 40.5881 154.331 40.7374C154.093 40.8849 153.816 40.9578 153.5 40.9578Z" fill="#545454"/>
<path d="M157.782 35.8174C157.782 35.9667 157.73 36.0929 157.628 36.1942C157.526 36.2965 157.4 36.3471 157.25 36.3471C157.102 36.3471 156.977 36.2965 156.876 36.1942C156.773 36.0929 156.722 35.9667 156.722 35.8174C156.722 35.6663 156.773 35.5393 156.876 35.4371C156.977 35.3331 157.102 35.2806 157.25 35.2806C157.4 35.2806 157.526 35.3331 157.628 35.4371C157.73 35.5393 157.782 35.6663 157.782 35.8174ZM156.833 40.8938V36.8768H157.664V40.8938H156.833Z" fill="#545454"/>
<path d="M160.385 40.9578C159.847 40.9578 159.395 40.7623 159.03 40.3712C158.666 39.9802 158.484 39.4807 158.484 38.8711C158.484 38.2623 158.664 37.7673 159.026 37.3851C159.39 37.0039 159.843 36.8128 160.385 36.8128C160.701 36.8128 160.979 36.8857 161.219 37.0297C161.462 37.1718 161.648 37.3594 161.779 37.5913V36.8768H162.621V40.9578C162.621 41.5212 162.446 41.9825 162.097 42.3406C161.749 42.6979 161.285 42.8774 160.706 42.8774C160.126 42.8774 159.655 42.7495 159.294 42.4935C158.934 42.2376 158.73 41.891 158.68 41.4555H159.508C159.572 41.6634 159.707 41.8323 159.914 41.9603C160.121 42.09 160.38 42.1558 160.692 42.1558C161.003 42.1558 161.262 42.0527 161.469 41.8465C161.676 41.6421 161.779 41.3462 161.779 40.9578V40.1437C161.644 40.3908 161.456 40.5881 161.216 40.7374C160.978 40.8849 160.701 40.9578 160.385 40.9578ZM161.416 39.87C161.658 39.6238 161.779 39.2941 161.779 38.8817C161.779 38.4694 161.658 38.1423 161.416 37.9006C161.175 37.6571 160.89 37.5344 160.56 37.5344C160.229 37.5344 159.943 37.6544 159.7 37.8935C159.46 38.1308 159.34 38.4552 159.34 38.8675C159.34 39.2799 159.46 39.6123 159.7 39.8629C159.943 40.1117 160.229 40.2362 160.56 40.2362C160.89 40.2362 161.175 40.1144 161.416 39.87Z" fill="#545454"/>
<path d="M164.666 35.8174C164.666 35.9667 164.615 36.0929 164.513 36.1942C164.41 36.2965 164.285 36.3471 164.135 36.3471C163.987 36.3471 163.862 36.2965 163.76 36.1942C163.658 36.0929 163.607 35.9667 163.607 35.8174C163.607 35.6663 163.658 35.5393 163.76 35.4371C163.862 35.3331 163.987 35.2806 164.135 35.2806C164.285 35.2806 164.41 35.3331 164.513 35.4371C164.615 35.5393 164.666 35.6663 164.666 35.8174ZM163.718 40.8938V36.8768H164.549V40.8938H163.718Z" fill="#545454"/>
<path d="M167.598 37.5558H166.617V39.7776C166.617 39.9296 166.653 40.0389 166.724 40.1046C166.795 40.1686 166.917 40.2006 167.088 40.2006H167.598V40.8938H166.942C166.166 40.8938 165.779 40.5223 165.779 39.7776V37.5558H165.301V36.8768H165.779V35.8814H166.617V36.8768H167.598V37.5558Z" fill="#545454"/>
<path d="M171.019 39.87C171.262 39.6238 171.383 39.2941 171.383 38.8817C171.383 38.4694 171.262 38.1423 171.019 37.9006C170.779 37.6571 170.493 37.5344 170.163 37.5344C169.833 37.5344 169.546 37.6544 169.304 37.8935C169.063 38.1308 168.944 38.4552 168.944 38.8675C168.944 39.2799 169.063 39.6123 169.304 39.8629C169.546 40.1117 169.833 40.2361 170.163 40.2361C170.493 40.2361 170.779 40.1144 171.019 39.87ZM169.989 40.9578C169.451 40.9578 168.999 40.7623 168.634 40.3712C168.27 39.9802 168.088 39.4807 168.088 38.8711C168.088 38.2623 168.268 37.7673 168.63 37.3851C168.994 37.0039 169.447 36.8128 169.989 36.8128C170.304 36.8128 170.582 36.8857 170.823 37.0297C171.066 37.1718 171.252 37.3594 171.383 37.5913V36.8768H172.225V40.8938H171.383V40.1437C171.248 40.3908 171.059 40.5881 170.82 40.7374C170.582 40.8849 170.304 40.9578 169.989 40.9578Z" fill="#545454"/>
<path d="M173.321 40.8938V35.501H174.152V40.8938H173.321Z" fill="#545454"/>
</svg>
